<?xml version="1.0" encoding="UTF-8"?>
<svg id="Layer_2" data-name="Layer 2" xmlns="http://www.w3.org/2000/svg" viewBox="0 0 43.9 33.81">
  <defs>
    <style>
      .cls-1 {
        fill: #fd7878;
      }

      .cls-1, .cls-2 {
        stroke-width: 0px;
      }

      .cls-2 {
        fill: #fd0000;
      }
    </style>
  </defs>
  <g id="Layer_1-2" data-name="Layer 1">
    <path class="cls-2" d="m0,16.43v-2.38c.48-.75,1.21-.96,2.05-.97,2.26,0,4.53,0,6.79,0,2.02,0,2.1-.08,2.11-2.05,0-2.93-.01-5.87,0-8.8.01-1.89.24-2.1,2.14-2.1,1.31,0,2.62,0,3.93,0,1.38,0,1.57.17,1.58,1.58.03,2.97,0,5.95.01,8.92,0,.4.02.79,0,1.19-.05.91.36,1.28,1.28,1.27,2.26-.02,4.53,0,6.79,0,.44,0,.87-.01,1.31.02,1.28.1,1.96.75,2.04,2.04.07,1.15.06,2.3,0,3.45-.07,1.4-.77,2.09-2.19,2.13-2.42.06-4.85.01-7.27.02q-1.96,0-1.96,2.01c0,1.03-.01,2.06.01,3.09.02.68.35,1.04,1.03,1.03,3.09-.06,6.2.3,9.27-.18,4.72-.73,7.59-3.89,7.98-8.66.22-2.69-.34-5.2-1.9-7.45-1.8-2.57-4.44-3.45-7.41-3.64-1.23-.08-2.46.02-3.69-.03-1.27-.05-1.69-.48-1.74-1.76-.04-1.03-.02-2.06,0-3.09.02-1.67.25-1.89,1.95-1.94.23,0,.48.04.69-.12h.95c.64.19,1.27.19,1.91,0h.48c.64.27,1.34.18,1.99.2,7.19.2,13.78,7.26,13.75,14.89,0,1.9.1,3.81-.13,5.7-.4,3.29-2.03,5.96-4.28,8.3-1.1,1.15-2.36,2.1-3.72,2.95-1.94,1.22-4.07,1.75-6.33,1.76-5.48.01-10.96,0-16.44,0-1.53,0-1.98-.42-2-1.98-.04-3.09,0-6.19-.02-9.28,0-1.76-.06-1.8-1.79-1.83-1.75-.03-3.49.1-5.24-.08-.88-.25-1.78-.33-2.7-.29-.78.04-1.14-.26-1.13-1.11.02-.94.16-1.89-.1-2.81Z"/>
    <path class="cls-2" d="m4.08,20.2c-1.36.01-2.72.03-4.08.04v-3.81c.49.88.18,1.84.22,2.75.02.67.25.89.91.89.98,0,1.98-.13,2.95.12Z"/>
    <path class="cls-1" d="m27.66,0c-.64.34-1.27.38-1.91,0h1.91Z"/>
  </g>
</svg>