<?xml version="1.0" encoding="utf-8"?>
<svg xmlns="http://www.w3.org/2000/svg" width="480" height="480" viewBox="0 0 48 48">
  <path fill="#b0bec5" d="M46,24.296c0,0-2.493-5.296-9-5.296s-9,5.296-9,5.296V28h18V24.296z" />
  <path fill="#cfd8dc" d="M11,17c-2.762,0-5-2.238-5-5s2.238-5,5-5s5,2.238,5,5S13.762,17,11,17" />
  <path fill="#b0bec5" d="M2.028,24.394c0,0,2.461-5.394,8.958-5.394S20,24.394,20,24.394L19.972,28H2L2.028,24.394z" />
  <path fill="#3f51b5" d="M35,23.37c0,0-3.105-6.37-11.06-6.37C15.987,17,13,23.37,13,23.37V28h22V23.37z" />
  <path fill="#cfd8dc" d="M37,17c2.762,0,5-2.238,5-5s-2.238-5-5-5s-5,2.238-5,5S34.238,17,37,17" />
  <path fill="#ffcc80" d="M34.005,34.66v-0.667H26v-9C26,24.256,25.27,23,23.936,23S22,24.327,22,24.994s0,10.001,0,10.001s-2.408,1.535-3.335,2.668c-0.824,0.929-0.928,2.095,0,3.335l1.796,2.565C22.417,45.52,24.391,47,27.173,47h4.588C35.162,47,38,44.294,38,40.894c0,0,0-1.555,0-5.567L34.005,34.66z" />
  <path fill="#ffcc80" d="M26,38.72c0,1.069,0.9,1.944,2.001,1.944s2.001-0.874,2.001-1.944v-4.785c0-1.069-0.9-1.942-2.001-1.942S26,32.866,26,33.935V38.72z M30.002,38.72c0,1.069,0.9,1.944,2.001,1.944c1.101,0,2.001-0.874,2.001-1.944v-4.785c0-1.069-0.9-1.942-2.001-1.942c-1.101,0-2.001,0.874-2.001,1.942V38.72z M34.004,39.387c0,1.069,0.9,1.944,2.001,1.944S38,40.456,38,39.387v-4.785c0-1.069-0.895-1.942-1.995-1.942s-2.001,0.874-2.001,1.942V39.387z" />
  <path fill="#f2a25a" d="M22,40.997v-6.003c0,0-1.008,0.644-1.971,1.404L22,40.997z" />
  <path fill="#ffb300" d="M30,9c0,3.316-2.688,6-6,6s-6-2.684-6-6s2.688-6,6-6S30,5.688,30,9" />
</svg>