<?xml version="1.0" encoding="utf-8"?>
<svg xmlns="http://www.w3.org/2000/svg" viewBox="0 0 48 48" width="480" height="480">
  <path fill="#546e7a" d="M-0.001,8h38v26h-38V8z" />
  <path fill="#64b5f6" d="M2,10h34v21H2V10z" />
  <path fill="#ffa726" d="M29.001,22.5c0,0.8-0.7,1.5-1.5,1.5s-1.5-0.7-1.5-1.5s0.7-1.5,1.5-1.5S29.001,21.7,29.001,22.5 M42.001,22.5c0-0.8-0.7-1.5-1.5-1.5s-1.5,0.7-1.5,1.5s0.7,1.5,1.5,1.5S42.001,23.3,42.001,22.5" />
  <path fill="#8bc34a" d="M37.801,31L37.801,31l-3.8,0.8l-3.7-0.8c0,0-8.3,1.5-8.3,10h24C46.001,32.6,37.801,31,37.801,31" />
  <path fill="#ff9800" d="M34.001,33c-3.1,0-4-2-4-2v-4h8v4C38.001,31,37.101,33,34.001,33z" />
  <path fill="#33691e" d="M34.001,35c3.1,0,5-1,5.9-3.3c-0.9-0.4-1.6-0.6-2-0.7c-0.7,1-1.8,1.9-4,1.9s-3.1-0.8-4-1.9c-0.4,0.1-1.1,0.3-2,0.7C28.901,33.9,30.901,35,34.001,35z" />
  <path fill="#424242" d="M37.201,12.6l-0.8-1.6h-2.4c-4.9,0-8,4.3-8,8.2V21l1,1c0,3.8,3,7,3,7h8c0,0,3-3.2,3-7l1-1v-0.8C42.001,17,41.201,13.4,37.201,12.6z" />
  <path fill="#e1f5fe" d="M21.966,31c-1.048-2.436-3.468-4.143-6.287-4.143h-2.314c-2.82,0-5.24,1.707-6.288,4.143H21.966z" />
  <path fill="#ff9800" d="M16.808,24.571h-4.571V27l2.239,3l2.333-3V24.571z M18.521,20c-0.947,0-1.714,0.768-1.714,1.714 s0.768,1.714,1.714,1.714s1.714-0.768,1.714-1.714S19.468,20,18.521,20L18.521,20z M10.521,20c-0.947,0-1.714,0.768-1.714,1.714 s0.768,1.714,1.714,1.714c0.947,0,1.714-0.768,1.714-1.714S11.468,20,10.521,20z" />
  <path fill="#ffb74d" d="M19.093,17.961c0-2.521-2.05-2.533-4.571-2.533S9.95,15.44,9.95,17.961c0,0.397,0,3.927,0,4.325 c0,2.521,2.05,4.571,4.571,4.571s4.571-2.05,4.571-4.571C19.093,21.889,19.093,18.359,19.093,17.961z" />
  <path fill="#424242" d="M14.271,13.143c-2.785,0.25-5.464,2.206-5.464,6.37v1.63l1.143,1.143v-3.429l7.211-2.515 l1.931,2.515v3.429l1.143-1.143v-1.375c0-2.759-0.154-4.806-3.429-5.482l-0.554-1.143L14.271,13.143z" />
  <path fill="#e1f5fe" d="M20.236,19c0,0-2.857-0.583-5.714-0.583S8.807,19,8.807,19c0-2.333,0.571-5.833,0.571-5.833S10.736,12,14.664,12c3.929,0,5,1.167,5,1.167S20.236,16.667,20.236,19z" />
  <rect width="1" height="3" x="14" y="14" fill="#f44336" />
  <rect width="1" height="3" x="14" y="14" fill="#f44336" transform="rotate(90 14.5 15.5)" />
</svg>