<?xml version="1.0" encoding="utf-8"?>
<svg xmlns="http://www.w3.org/2000/svg" width="480" height="480" viewBox="0 0 48 48">
  <path fill="#E1BEE7" d="M20,35H8c-0.553,0-1-0.447-1-1v-3c0-0.553,0.447-1,1-1h12c0.553,0,1,0.447,1,1v3C21,34.553,20.553,35,20,35z" />
  <path fill="#FF9800" d="M9,42H4V18h5v15h30l0,0h5v9h-5v-4H9V42z" />
  <path fill="#BA68C8" d="M19,24c0.542,1.876,1.163,6,1.163,6h-5c-1.657,0-2.329-1.111-3-3l-1.858-6.502C9.742,18.749,11.219,17,12.828,17H14c1.656,0,3.408,1.211,4,3L19,24z" />
  <path fill="#9C27B0" d="M44,26.696C44,25.134,42.872,24,41.317,24H19v9h25V26.696z" />
  <path fill="#FFB74D" d="M12.5 7c2.485 0 4.5 2.016 4.5 4.5 0 2.485-2.015 4.5-4.5 4.5S8 13.985 8 11.5C8 9.016 10.015 7 12.5 7M22.172 25h-5.594l-1.27-5.55c-.375-1.047-1.206-1.82-2.484-1.386C11.547 18.498 11.553 20.036 12 21l1.769 5.9c.103.258.263.48.46.657.3.268.687.428 1.104.442h6.84c0 0 1.375.063 1.375-1.469S22.172 25 22.172 25z" />
  <path fill="#455A64" d="M35,20c0,0.553,0.447,1,1,1h7c0.553,0,1-0.447,1-1V9c0-0.553-0.447-1-1-1h-7c-0.553,0-1,0.447-1,1V20z" />
  <path fill="#455A64" d="M44,10c0,0.553-0.447,1-1,1l0,0c-0.553,0-1-0.447-1-1V7c0-0.553,0.447-1,1-1l0,0c0.553,0,1,0.447,1,1V10z" />
  <path fill="#CDDC39" d="M37 11H42V14H37z" />
</svg>