<?xml version="1.0" encoding="utf-8"?>
<svg xmlns="http://www.w3.org/2000/svg" viewBox="0 0 48 48" width="96" height="96">
  <path fill="#455a64" d="M46,40.958c0,0-2.215-5.03-8-5.03c-5.786,0-8,5.03-8,5.03V43h16V40.958z" />
  <path fill="#ffb74d" d="M38,34c2.209,0,4-1.791,4-4s-1.791-4-4-4s-4,1.791-4,4S35.791,34,38,34 M27,32c-2.763,0-5-2.238-5-5 s2.237-5,5-5c2.761,0,5,2.238,5,5S29.761,32,27,32" />
  <path fill="#546e7a" d="M17,40.197c0,0,2.768-6.287,10-6.287c7.231,0,10,6.287,10,6.287V43H17V40.197z" />
  <path fill="#78909c" d="M26,39.545c0,0-3.321-7.545-12-7.545c-8.68,0-12,7.545-12,7.545V43h24V39.545z" />
  <path fill="#ffb74d" d="M27,32c-2.763,0-5-2.238-5-5s2.237-5,5-5c2.761,0,5,2.238,5,5S29.761,32,27,32" />
  <path fill="#2196f3" d="M12,8h4v8h-4V8z" />
  <path fill="#2196f3" d="M8,12h12l-6-7L8,12z" />
  <path fill="#ffb74d" d="M20,24c0,3.315-2.687,6-6,6c-3.314,0-6-2.685-6-6s2.686-6,6-6C17.313,18,20,20.685,20,24" />
</svg>