<?xml version="1.0" encoding="utf-8"?>
<svg xmlns="http://www.w3.org/2000/svg" viewBox="0 0 48 48" width="96" height="96">
  <path fill="#37474f" d="M40,24.5v3l-2,1l-1,8.6h-5.1l-1-8.6l-2-1v-3c0-3,2.5-5.5,5.5-5.5h0C37.5,19,40,21.5,40,24.5z" />
  <path fill="#455a64" d="M32,23v6.5l-2,1l-1,9.6h-6.1l-1-9.6l-2-1V23c0-3.3,2.7-6,6-6h0C29.3,17,32,19.7,32,23z" />
  <path fill="#ffb74d" d="M15.5,13C18,13,20,11,20,8.5S18,4,15.5,4S11,6,11,8.5S13,13,15.5,13" />
  <path fill="#ffa726" d="M26,15c2.2,0,4-1.8,4-4s-1.8-4-4-4s-4,1.8-4,4S23.8,15,26,15" />
  <path fill="#fb8c00" d="M35,17c1.7,0,3-1.3,3-3s-1.3-3-3-3s-3,1.3-3,3S33.3,17,35,17" />
  <path fill="#78909c" d="M23,22.5v8l-3,2l-1,10.6h-7.1l-1-10.6l-3-2v-8c0-4.1,3.4-7.5,7.5-7.5h0C19.6,15,23,18.4,23,22.5z" />
  <rect width="2" height="16" x="43" y="27" fill="#bf360c" />
  <rect width="2" height="16" x="3" y="27" fill="#bf360c" />
  <circle cx="44" cy="26" r="2" fill="#bf360c" />
  <circle cx="4" cy="26" r="2" fill="#bf360c" />
  <path fill="#bf360c" d="M24,31c-9.3,0-17.8-1.5-20.6-3.6l1.2-1.6C7,27.6,15.4,29,24,29c9.6,0,17.5-1.7,19.5-3.3l1.3,1.6 C42,29.5,33.5,31,24,31z" />
</svg>